<svg xmlns="http://www.w3.org/2000/svg" xmlns:xlink="http://www.w3.org/1999/xlink" aria-hidden="true" role="img" class="iconify iconify--logos" width="31.88" height="32" preserveAspectRatio="xMidYMid meet" viewBox="0 0 256 257"><defs><linearGradient id="IconifyId1813088fe1fbc01fb466" x1="-.828%" x2="57.636%" y1="7.652%" y2="78.411%"><stop offset="0%" stop-color="#41D1FF"></stop><stop offset="100%" stop-color="#BD34FE"></stop></linearGradient><linearGradient id="IconifyId1813088fe1fbc01fb467" x1="43.376%" x2="50.316%" y1="2.242%" y2="89.03%"><stop offset="0%" stop-color="#FFBD4F"></stop><stop offset="100%" stop-color="#FF980E"></stop></linearGradient></defs><path fill="url(#IconifyId1813088fe1fbc01fb466)" d="M255.153 37.938L134.897 252.976c-2.483 4.44-8.153 4.466-10.69.032L7.47 32.562c-2.925-5.055.13-13.666 5.227-14.557l97.21-16.97l32.399-86.888c1.406-3.775 5.973-3.798 7.4-.033l23.763 61.412l61.452-17.059c3.626-1.005 6.902 2.134 5.857 5.624l-15.935 53.392l2.607 1.072c-3.34.754-5.332 4.044-3.369 7.826l24.77 47.697a4.39 4.39 0 0 1-1.514 5.Match" fill="none" stroke="url(#IconifyId1813088fe1fbc01fb467)" stroke-width="2" stroke-linecap="round" stroke-linejoin="round"></path></svg>
